<?xml version="1.0" encoding="utf-8"?>
<!-- Generator: Adobe Illustrator 17.0.0, SVG Export Plug-In . SVG Version: 6.00 Build 0)  -->
<!DOCTYPE svg PUBLIC "-//W3C//DTD SVG 1.1//EN" "http://www.w3.org/Graphics/SVG/1.1/DTD/svg11.dtd">
<svg version="1.1" id="Layer_1" xmlns="http://www.w3.org/2000/svg" xmlns:xlink="http://www.w3.org/1999/xlink" x="0px" y="0px"
	 width="220.474px" height="188.028px" viewBox="0 0 220.474 188.028" enable-background="new 0 0 220.474 188.028"
	 xml:space="preserve">
<g>
	<defs>
		<rect id="SVGID_1_" width="220.474" height="188.028"/>
	</defs>
	<clipPath id="SVGID_2_">
		<use xlink:href="#SVGID_1_"  overflow="visible"/>
	</clipPath>
	<path clip-path="url(#SVGID_2_)" fill="#213647" d="M173.11,108.391c8.788-6.857,16.369-12.718,23.887-18.659
		c3.653-2.887,6.974-6.253,10.859-8.764c2.091-1.351,5.907-2.658,7.425-1.664c2.364,1.548,4.604,4.978,4.83,7.777
		c0.637,7.898,0.249,15.882,0.215,23.832c-0.077,18.321-0.197,36.641-0.268,54.962c-0.014,3.75-0.022,7.387-4.188,9.305
		c-3.974,1.829-6.655-0.492-9.407-2.69c-10.146-8.107-20.28-16.228-30.426-24.333c-0.603-0.481-1.278-0.87-2.76-1.868
		c0,8.064,0.003,15.304-0.001,22.544c-0.007,13.294-5.896,19.19-19.183,19.191c-35.812,0.003-71.625,0.009-107.438-0.005
		c-12.999-0.005-18.831-5.797-18.802-18.918c0.052-24.14,0.235-48.28,0.341-72.421c0.009-2.161-0.021-4.336-0.25-6.481
		c-1.201-11.27,5.632-19.137,16.959-19.158c31.315-0.06,62.631-0.023,93.946-0.023c6.163,0,12.332-0.154,18.488,0.045
		c9.925,0.322,16.386,7.94,15.834,17.887C172.84,94.901,173.11,100.886,173.11,108.391 M211.024,90.501
		c-2.048,0.886-3.64,1.212-4.767,2.117c-12.023,9.662-23.951,19.442-35.977,29.101c-1.179,0.947-2.834,1.3-4.269,1.928
		c-0.459-1.529-1.289-3.05-1.317-4.587c-0.184-9.813-0.151-19.63-0.273-29.444c-0.083-6.719-3.14-9.767-9.698-9.912
		c-2.825-0.062-5.649-0.235-8.474-0.237c-32.267-0.016-64.534-0.017-96.801-0.004c-10.431,0.004-13.379,2.892-13.347,13.347
		c0.076,25.141,0.242,50.281,0.363,75.422c0.04,8.326,2.99,11.383,11.436,11.391c35.142,0.036,70.283,0.031,105.425-0.019
		c8.125-0.012,11.233-3.131,11.284-11.16c0.069-10.823-0.039-21.647,0.09-32.468c0.019-1.667,0.893-3.325,1.373-4.987
		c1.584,0.729,3.386,1.182,4.718,2.231c11.767,9.275,23.443,18.665,35.172,27.99c1.322,1.052,2.801,1.908,5.062,3.43V90.501z"/>
	<path clip-path="url(#SVGID_2_)" fill="#FFBC54" d="M135.551,69.082c-19.056-0.075-34.352-15.625-34.271-34.84
		c0.08-18.912,15.927-34.436,34.954-34.24c18.593,0.192,34.397,16.194,34.239,34.668C170.311,53.624,154.547,69.157,135.551,69.082
		 M155.367,34.615c0.011-11.043-8.501-19.58-19.558-19.618c-11.065-0.037-19.64,8.5-19.619,19.531
		c0.021,11.166,8.398,19.571,19.54,19.605C146.796,54.167,155.356,45.659,155.367,34.615"/>
	<path clip-path="url(#SVGID_2_)" fill="#FFBC54" d="M66.096,69.083c-15.715-0.059-28.819-13.355-28.719-29.141
		c0.1-15.728,13.433-28.945,29.106-28.852c15.793,0.094,28.959,13.275,28.949,28.984C95.423,56.134,82.266,69.144,66.096,69.083
		 M66.177,23.76c-9.164,0.095-16.487,7.573-16.292,16.636c0.194,9.014,7.833,16.458,16.765,16.339
		c8.832-0.119,16.544-8.061,16.329-16.819C82.754,30.766,75.368,23.664,66.177,23.76"/>
	<path clip-path="url(#SVGID_2_)" fill="#FFBC54" d="M25.09,90.469c0.051,0.887,0.137,2.212,0.202,3.538
		c0.379,7.846-3.104,11.194-11.065,10.729c-1.309-0.076-2.649,0.299-3.947,0.175c-1.424-0.135-2.982-0.308-4.194-0.982
		c-6.782-3.775-8.614-24.93-1.785-28.259c4.539-2.213,10.987-1.957,16.203-0.915c4.938,0.986,5.029,6.361,4.928,10.808
		C25.397,87.052,25.229,88.539,25.09,90.469 M20.127,89.29c-0.858-3.029-0.885-6.814-2.781-8.899
		c-2.442-2.685-8.81-1.249-10.212,1.357C5.206,85.331,7.05,97.659,9.662,98.611c0.466,0.17,0.949,0.318,1.437,0.401
		C17.339,100.08,19.26,97.884,20.127,89.29"/>
</g>
</svg>
