<?xml version="1.0" encoding="utf-8"?>
<!-- Generator: Adobe Illustrator 17.0.0, SVG Export Plug-In . SVG Version: 6.00 Build 0)  -->
<!DOCTYPE svg PUBLIC "-//W3C//DTD SVG 1.1//EN" "http://www.w3.org/Graphics/SVG/1.1/DTD/svg11.dtd">
<svg version="1.1" id="Layer_1" xmlns="http://www.w3.org/2000/svg" xmlns:xlink="http://www.w3.org/1999/xlink" x="0px" y="0px"
	 width="245.721px" height="189.852px" viewBox="0 0 245.721 189.852" enable-background="new 0 0 245.721 189.852"
	 xml:space="preserve">
<path id="XMLID_638_" fill-rule="evenodd" clip-rule="evenodd" fill="none" stroke="#213647" stroke-width="11" stroke-miterlimit="10" d="
	M226.88,159.471H39.6c-6.6,0-12-5.4-12-12V20.182c0-6.6,5.4-12,12-12h187.28c6.6,0,12,5.4,12,12v127.29
	C238.88,154.071,233.48,159.471,226.88,159.471z"/>
<g id="XMLID_706_">
	<g id="XMLID_633_">
		<path id="XMLID_634_" fill="#213647" d="M66.325,58.664h-57.6C3.931,58.664,0,62.595,0,67.388v111.739
			c0,4.794,3.931,8.725,8.725,8.725h57.6c4.794,0,8.725-3.931,8.725-8.725V67.388C75.049,62.595,71.118,58.664,66.325,58.664
			L66.325,58.664z M37.525,183.492c-2.417,0-4.36-1.947-4.36-4.365c0-2.413,1.943-4.36,4.36-4.36c2.413,0,4.36,1.947,4.36,4.36
			C41.885,181.545,39.938,183.492,37.525,183.492L37.525,183.492z M68.973,171.703H6.072V72.505h62.901V171.703z M68.973,171.703"/>
	</g>
	<rect id="XMLID_703_" x="6.072" y="72.505" fill="#FFFFFF" width="62.901" height="99.198"/>
	<g id="XMLID_704_">
		<path id="XMLID_748_" fill-rule="evenodd" clip-rule="evenodd" fill="#FFBC54" d="M32.016,142.986c-0.54,0-0.977-0.44-0.977-0.977
			c0-0.54,0.437-0.98,0.977-0.98h11.419c0.54,0,0.98,0.44,0.98,0.98c0,0.537-0.44,0.977-0.98,0.977H32.016z M32.016,142.986"/>
		<path id="XMLID_745_" fill-rule="evenodd" clip-rule="evenodd" fill="#FFBC54" d="M33.287,146.894c-0.54,0-0.98-0.45-0.98-0.99
			c0-0.54,0.44-0.98,0.98-0.98h8.88c0.54,0,0.99,0.44,0.99,0.98c0,0.54-0.45,0.99-0.99,0.99H33.287z M33.287,146.894"/>
		<path id="XMLID_742_" fill-rule="evenodd" clip-rule="evenodd" fill="#FFBC54" d="M36.803,133.306c0,0.55-0.44,0.98-0.98,0.98
			c-0.54,0-0.98-0.43-0.98-0.98c0-4.125-0.12-7.222-0.691-10.079c-0.568-2.829-1.578-5.445-3.366-8.683
			c-0.268-0.468-0.1-1.069,0.379-1.327c0.471-0.261,1.059-0.089,1.33,0.379c1.908,3.427,2.987,6.225,3.586,9.25
			C36.673,125.823,36.803,129.03,36.803,133.306L36.803,133.306z M36.803,133.306"/>
		<path id="XMLID_739_" fill-rule="evenodd" clip-rule="evenodd" fill="#FFBC54" d="M40.609,133.306c0,0.55-0.44,0.98-0.98,0.98
			s-0.98-0.43-0.98-0.98c0.01-4.276,0.13-7.473,0.729-10.46c0.601-3.025,1.68-5.823,3.588-9.25c0.258-0.478,0.859-0.65,1.327-0.379
			c0.471,0.258,0.639,0.859,0.381,1.327c-1.798,3.238-2.808,5.854-3.378,8.683C40.729,126.084,40.609,129.181,40.609,133.306
			L40.609,133.306z M40.609,133.306"/>
		<path id="XMLID_736_" fill-rule="evenodd" clip-rule="evenodd" fill="#FFBC54" d="M31.338,115.005
			c-0.509-0.169-0.79-0.719-0.629-1.238c0.169-0.511,0.719-0.79,1.228-0.632c0.691,0.22,1.279,0.522,1.818,0.79l0.061,0.031
			c0.849,0.43,1.557,0.77,2.087,0.34l1.21-0.99c0.419-0.34,1.038-0.281,1.378,0.141c0.34,0.419,0.268,1.038-0.151,1.378
			l-1.199,0.987c-1.506,1.22-2.737,0.629-4.215-0.12l-0.051-0.018C32.397,115.434,31.878,115.174,31.338,115.005L31.338,115.005z
			 M31.338,115.005"/>
		<path id="XMLID_733_" fill-rule="evenodd" clip-rule="evenodd" fill="#FFBC54" d="M38.711,92.716c0,0.55-0.44,0.99-0.98,0.99
			c-0.54,0-0.99-0.44-0.99-0.99v-3.806c0-0.54,0.45-0.98,0.99-0.98c0.54,0,0.98,0.44,0.98,0.98V92.716z M38.711,92.716"/>
		<path id="XMLID_730_" fill-rule="evenodd" clip-rule="evenodd" fill="#FFBC54" d="M43.517,113.135
			c0.519-0.169,1.069,0.12,1.238,0.632c0.159,0.519-0.12,1.069-0.639,1.238c-0.54,0.169-1.059,0.43-1.54,0.67l-0.038,0.028
			c-1.478,0.739-2.719,1.34-4.217,0.11l-1.207-0.977c-0.419-0.34-0.481-0.959-0.141-1.381c0.34-0.419,0.949-0.489,1.368-0.148
			l1.21,0.99c0.529,0.43,1.238,0.089,2.097-0.34l0.051-0.031C42.246,113.657,42.836,113.355,43.517,113.135L43.517,113.135z
			 M43.517,113.135"/>
		<path id="XMLID_726_" fill-rule="evenodd" clip-rule="evenodd" fill="#FFBC54" d="M50.089,103.197
			c3.156,3.156,5.115,7.532,5.115,12.358c0,1.887-0.299,3.706-0.859,5.414c-0.581,1.767-1.43,3.417-2.499,4.885
			c-1.808,2.468-3.266,4.087-4.404,5.335c-2.049,2.269-2.939,3.256-2.939,6.563c0,0.54-0.44,0.98-0.987,0.98H32.026
			c-0.55,0-0.987-0.44-0.987-0.98c0-3.276-0.91-4.274-2.949-6.504c-1.148-1.248-2.627-2.867-4.476-5.394
			c-1.069-1.468-1.928-3.118-2.496-4.885c-0.56-1.708-0.859-3.537-0.859-5.414c0-2.368,0.468-4.626,1.327-6.685l0.02-0.038
			c0.88-2.128,2.179-4.046,3.767-5.634c1.609-1.609,3.537-2.898,5.675-3.788c2.066-0.859,4.325-1.327,6.683-1.327
			c2.358,0,4.614,0.468,6.683,1.327C46.552,100.289,48.481,101.588,50.089,103.197L50.089,103.197z M53.235,115.555
			c0-4.286-1.737-8.163-4.535-10.969c-1.44-1.43-3.148-2.588-5.036-3.368c-1.829-0.76-3.826-1.179-5.933-1.179
			c-2.107,0-4.117,0.42-5.933,1.179c-1.89,0.78-3.598,1.939-5.036,3.368c-1.419,1.417-2.568,3.115-3.348,4.984l-0.02,0.049
			c-0.76,1.818-1.179,3.829-1.179,5.936c0,1.678,0.271,3.297,0.76,4.806c0.519,1.568,1.269,3.036,2.217,4.335
			c1.78,2.427,3.228,4.005,4.348,5.235v0.01c2.176,2.386,3.266,3.575,3.435,6.834h9.583c0.169-3.279,1.238-4.458,3.425-6.885
			c1.1-1.217,2.509-2.777,4.276-5.194c0.949-1.299,1.708-2.757,2.217-4.325C52.967,118.851,53.235,117.232,53.235,115.555
			L53.235,115.555z M53.235,115.555"/>
		<path id="XMLID_723_" fill-rule="evenodd" clip-rule="evenodd" fill="#FFBC54" d="M34.555,150.779c-0.54,0-0.98-0.44-0.98-0.98
			s0.44-0.977,0.98-0.977h6.343c0.55,0,0.99,0.437,0.99,0.977s-0.44,0.98-0.99,0.98H34.555z M34.555,150.779"/>
		<path id="XMLID_720_" fill-rule="evenodd" clip-rule="evenodd" fill="#FFBC54" d="M49.78,96.202
			c-0.271,0.471-0.87,0.629-1.34,0.361c-0.468-0.261-0.629-0.859-0.358-1.33l1.908-3.297c0.258-0.468,0.859-0.629,1.327-0.358
			c0.471,0.269,0.629,0.87,0.361,1.327L49.78,96.202z M49.78,96.202"/>
		<path id="XMLID_717_" fill-rule="evenodd" clip-rule="evenodd" fill="#FFBC54" d="M27.371,95.233
			c0.269,0.471,0.11,1.069-0.361,1.33c-0.458,0.269-1.059,0.11-1.327-0.361l-1.908-3.297c-0.271-0.458-0.1-1.059,0.358-1.327
			c0.471-0.271,1.069-0.11,1.34,0.358L27.371,95.233z M27.371,95.233"/>
		<path id="XMLID_714_" fill-rule="evenodd" clip-rule="evenodd" fill="#FFBC54" d="M18.819,103.077
			c0.46,0.258,0.619,0.859,0.361,1.327c-0.271,0.471-0.869,0.629-1.34,0.361l-3.297-1.898c-0.468-0.271-0.629-0.869-0.358-1.34
			c0.269-0.468,0.87-0.629,1.338-0.358L18.819,103.077z M18.819,103.077"/>
		<path id="XMLID_709_" fill-rule="evenodd" clip-rule="evenodd" fill="#FFBC54" d="M57.611,104.765
			c-0.458,0.269-1.059,0.11-1.327-0.361c-0.271-0.468-0.11-1.069,0.358-1.327l3.297-1.908c0.471-0.271,1.069-0.11,1.33,0.358
			c0.269,0.471,0.11,1.069-0.361,1.34L57.611,104.765z M57.611,104.765"/>
		<path id="XMLID_705_" fill-rule="evenodd" clip-rule="evenodd" fill="#FFBC54" d="M27.522,119.429
			c0.21,0.501-0.02,1.079-0.522,1.289c-0.499,0.199-1.066-0.028-1.279-0.529c-0.327-0.788-0.588-1.619-0.767-2.476
			c-0.171-0.852-0.261-1.719-0.261-2.588c0-0.54,0.44-0.99,0.99-0.99c0.54,0,0.98,0.45,0.98,0.99c0,0.77,0.069,1.509,0.22,2.207
			C27.021,118.051,27.241,118.762,27.522,119.429L27.522,119.429z M27.522,110.808c-0.199,0.501-0.78,0.729-1.279,0.519
			c-0.501-0.21-0.731-0.778-0.522-1.279c0.33-0.777,0.731-1.517,1.189-2.197l0.01-0.01h-0.01c0.481-0.698,1.01-1.348,1.599-1.939
			c0.581-0.578,1.23-1.118,1.939-1.588v-0.01c0.68-0.448,1.43-0.859,2.207-1.189c0.79-0.327,1.619-0.588,2.488-0.767
			c0.849-0.171,1.719-0.261,2.588-0.261c0.54,0,0.98,0.44,0.98,0.99c0,0.54-0.44,0.979-0.98,0.979c-0.77,0-1.509,0.069-2.207,0.21
			c-0.731,0.148-1.44,0.368-2.11,0.65c-0.65,0.279-1.269,0.619-1.867,1.018c-0.581,0.389-1.13,0.849-1.65,1.358
			c-0.499,0.511-0.959,1.059-1.358,1.65C28.141,109.529,27.801,110.158,27.522,110.808L27.522,110.808z M27.522,110.808"/>
	</g>
</g>
<g id="XMLID_707_">
	<path id="XMLID_762_" fill-rule="evenodd" clip-rule="evenodd" fill="#FFBC54" d="M128.025,124.673
		c-0.941,0-1.703-0.767-1.703-1.703c0-0.941,0.762-1.707,1.703-1.707h19.903c0.941,0,1.707,0.767,1.707,1.707
		c0,0.936-0.767,1.703-1.707,1.703H128.025z M128.025,124.673"/>
	<path id="XMLID_759_" fill-rule="evenodd" clip-rule="evenodd" fill="#FFBC54" d="M130.241,131.485
		c-0.941,0-1.707-0.785-1.707-1.725c0-0.941,0.767-1.707,1.707-1.707h15.477c0.941,0,1.725,0.767,1.725,1.707
		c0,0.94-0.784,1.725-1.725,1.725H130.241z M130.241,131.485"/>
	<path id="XMLID_756_" fill-rule="evenodd" clip-rule="evenodd" fill="#FFBC54" d="M136.37,107.802c0,0.958-0.767,1.707-1.707,1.707
		s-1.707-0.749-1.707-1.707c0-7.19-0.21-12.588-1.204-17.567c-0.99-4.93-2.75-9.49-5.866-15.134
		c-0.468-0.816-0.174-1.863,0.66-2.314c0.82-0.455,1.845-0.156,2.318,0.66c3.326,5.973,5.206,10.85,6.25,16.123
		C136.143,94.759,136.37,100.348,136.37,107.802L136.37,107.802z M136.37,107.802"/>
	<path id="XMLID_753_" fill-rule="evenodd" clip-rule="evenodd" fill="#FFBC54" d="M143.003,107.802
		c0,0.958-0.767,1.707-1.707,1.707s-1.707-0.749-1.707-1.707c0.018-7.453,0.227-13.025,1.27-18.232
		c1.048-5.273,2.929-10.15,6.254-16.123c0.45-0.834,1.498-1.132,2.314-0.66c0.82,0.45,1.114,1.498,0.664,2.314
		c-3.134,5.643-4.894,10.203-5.888,15.134C143.212,95.213,143.003,100.611,143.003,107.802L143.003,107.802z M143.003,107.802"/>
	<path id="XMLID_750_" fill-rule="evenodd" clip-rule="evenodd" fill="#FFBC54" d="M126.844,75.903
		c-0.887-0.294-1.377-1.253-1.097-2.158c0.294-0.891,1.253-1.377,2.14-1.101c1.204,0.383,2.229,0.909,3.169,1.377l0.107,0.053
		c1.48,0.749,2.715,1.342,3.637,0.593l2.108-1.725c0.731-0.593,1.81-0.49,2.403,0.245c0.593,0.731,0.468,1.81-0.263,2.403
		l-2.09,1.721c-2.626,2.126-4.77,1.097-7.346-0.209l-0.089-0.031C128.689,76.652,127.785,76.197,126.844,75.903L126.844,75.903z
		 M126.844,75.903"/>
	<path id="XMLID_746_" fill-rule="evenodd" clip-rule="evenodd" fill="#FFBC54" d="M139.695,37.055c0,0.958-0.767,1.725-1.707,1.725
		c-0.941,0-1.725-0.767-1.725-1.725v-6.633c0-0.941,0.784-1.707,1.725-1.707c0.941,0,1.707,0.767,1.707,1.707V37.055z
		 M139.695,37.055"/>
	<path id="XMLID_741_" fill-rule="evenodd" clip-rule="evenodd" fill="#FFBC54" d="M148.071,72.644
		c0.905-0.294,1.863,0.209,2.157,1.101c0.276,0.905-0.21,1.863-1.114,2.158c-0.94,0.294-1.845,0.749-2.683,1.168l-0.067,0.049
		c-2.577,1.288-4.739,2.336-7.351,0.192l-2.104-1.703c-0.731-0.593-0.838-1.672-0.245-2.407c0.593-0.731,1.654-0.851,2.385-0.259
		l2.109,1.725c0.923,0.749,2.158,0.156,3.655-0.593l0.089-0.053C145.856,73.554,146.885,73.028,148.071,72.644L148.071,72.644z
		 M148.071,72.644"/>
	<path id="XMLID_735_" fill-rule="evenodd" clip-rule="evenodd" fill="#FFBC54" d="M159.527,55.322
		c5.501,5.501,8.915,13.128,8.915,21.539c0,3.29-0.521,6.459-1.498,9.437c-1.012,3.08-2.492,5.955-4.355,8.514
		c-3.152,4.302-5.692,7.123-7.676,9.299c-3.571,3.954-5.122,5.675-5.122,11.438c0,0.941-0.767,1.707-1.721,1.707h-20.028
		c-0.958,0-1.721-0.767-1.721-1.707c0-5.71-1.587-7.449-5.139-11.336c-2.001-2.175-4.578-4.997-7.801-9.401
		c-1.863-2.559-3.361-5.434-4.351-8.514c-0.976-2.978-1.498-6.165-1.498-9.437c0-4.128,0.816-8.064,2.314-11.652l0.036-0.067
		c1.533-3.709,3.798-7.052,6.566-9.82c2.804-2.804,6.165-5.05,9.891-6.602c3.602-1.498,7.538-2.314,11.648-2.314
		c4.11,0,8.042,0.816,11.648,2.314C153.362,50.254,156.723,52.518,159.527,55.322L159.527,55.322z M165.01,76.861
		c0-7.471-3.027-14.229-7.904-19.119c-2.51-2.492-5.487-4.511-8.777-5.871c-3.187-1.324-6.669-2.055-10.342-2.055
		c-3.673,0-7.177,0.731-10.342,2.055c-3.294,1.36-6.272,3.379-8.777,5.871c-2.474,2.469-4.475,5.429-5.835,8.688l-0.036,0.085
		c-1.324,3.169-2.055,6.673-2.055,10.346c0,2.924,0.473,5.746,1.324,8.376c0.905,2.733,2.211,5.291,3.865,7.556
		c3.102,4.23,5.625,6.981,7.578,9.125v0.018c3.793,4.159,5.692,6.232,5.987,11.911H146.4c0.294-5.715,2.157-7.77,5.969-12
		c1.917-2.122,4.373-4.841,7.453-9.053c1.654-2.264,2.978-4.805,3.865-7.538C164.542,82.607,165.01,79.785,165.01,76.861
		L165.01,76.861z M165.01,76.861"/>
	<path id="XMLID_731_" fill-rule="evenodd" clip-rule="evenodd" fill="#FFBC54" d="M132.452,138.256
		c-0.941,0-1.707-0.767-1.707-1.707c0-0.941,0.767-1.703,1.707-1.703h11.055c0.959,0,1.725,0.762,1.725,1.703
		c0,0.941-0.767,1.707-1.725,1.707H132.452z M132.452,138.256"/>
	<path id="XMLID_727_" fill-rule="evenodd" clip-rule="evenodd" fill="#FFBC54" d="M158.988,43.13
		c-0.472,0.82-1.516,1.097-2.336,0.629c-0.816-0.455-1.097-1.498-0.624-2.318l3.325-5.746c0.45-0.816,1.498-1.097,2.314-0.624
		c0.82,0.468,1.096,1.516,0.628,2.314L158.988,43.13z M158.988,43.13"/>
	<path id="XMLID_722_" fill-rule="evenodd" clip-rule="evenodd" fill="#FFBC54" d="M119.93,41.441
		c0.468,0.82,0.192,1.863-0.628,2.318c-0.798,0.468-1.845,0.192-2.314-0.629l-3.325-5.746c-0.472-0.798-0.174-1.845,0.624-2.314
		c0.82-0.472,1.863-0.192,2.336,0.624L119.93,41.441z M119.93,41.441"/>
	<path id="XMLID_718_" fill-rule="evenodd" clip-rule="evenodd" fill="#FFBC54" d="M105.024,55.113
		c0.802,0.45,1.079,1.498,0.628,2.314c-0.472,0.82-1.515,1.097-2.336,0.628l-5.746-3.308c-0.816-0.472-1.096-1.515-0.624-2.336
		c0.468-0.816,1.516-1.097,2.331-0.624L105.024,55.113z M105.024,55.113"/>
	<path id="XMLID_713_" fill-rule="evenodd" clip-rule="evenodd" fill="#FFBC54" d="M172.637,58.055
		c-0.798,0.468-1.845,0.192-2.314-0.628c-0.473-0.816-0.192-1.863,0.624-2.314l5.746-3.325c0.82-0.472,1.863-0.192,2.318,0.624
		c0.468,0.82,0.192,1.863-0.628,2.336L172.637,58.055z M172.637,58.055"/>
	<path id="XMLID_708_" fill-rule="evenodd" clip-rule="evenodd" fill="#FFBC54" d="M120.193,83.614
		c0.366,0.874-0.036,1.881-0.909,2.247c-0.869,0.348-1.859-0.049-2.229-0.923c-0.571-1.373-1.025-2.822-1.337-4.315
		c-0.299-1.484-0.455-2.996-0.455-4.511c0-0.941,0.767-1.725,1.725-1.725c0.941,0,1.707,0.785,1.707,1.725
		c0,1.342,0.12,2.63,0.383,3.847C119.32,81.212,119.703,82.451,120.193,83.614L120.193,83.614z M120.193,68.588
		c-0.348,0.874-1.36,1.27-2.229,0.905c-0.874-0.366-1.275-1.355-0.909-2.229c0.575-1.355,1.275-2.643,2.073-3.829l0.018-0.018
		h-0.018c0.838-1.217,1.761-2.349,2.786-3.379c1.012-1.007,2.144-1.948,3.379-2.768v-0.018c1.186-0.78,2.492-1.498,3.847-2.073
		c1.377-0.571,2.822-1.025,4.337-1.337c1.48-0.299,2.996-0.455,4.511-0.455c0.941,0,1.707,0.767,1.707,1.725
		c0,0.941-0.767,1.707-1.707,1.707c-1.342,0-2.63,0.121-3.847,0.366c-1.275,0.258-2.51,0.642-3.678,1.132
		c-1.132,0.486-2.211,1.079-3.254,1.774c-1.012,0.678-1.97,1.48-2.875,2.367c-0.869,0.891-1.672,1.845-2.367,2.875
		C121.272,66.359,120.679,67.456,120.193,68.588L120.193,68.588z M120.193,68.588"/>
</g>
</svg>
