<?xml version="1.0" encoding="utf-8"?>
<!-- Generator: Adobe Illustrator 17.0.0, SVG Export Plug-In . SVG Version: 6.00 Build 0)  -->
<!DOCTYPE svg PUBLIC "-//W3C//DTD SVG 1.1//EN" "http://www.w3.org/Graphics/SVG/1.1/DTD/svg11.dtd">
<svg version="1.1" id="Layer_1" xmlns="http://www.w3.org/2000/svg" xmlns:xlink="http://www.w3.org/1999/xlink" x="0px" y="0px"
	 width="142.167px" height="130.449px" viewBox="0 0 142.167 130.449" enable-background="new 0 0 142.167 130.449"
	 xml:space="preserve">
<path fill="#213647" d="M139.436,30.6L111.572,2.736C109.807,0.971,107.464,0,104.969,0c-2.496,0-4.84,0.971-6.604,2.736
	l-6.549,6.548c-1.006,1.006-1.724,2.192-2.176,3.454L59.005,7.251h-0.008c-13.773-2.735-27.223,6.22-30.002,19.999l-1.413,7.008
	c-1.56,7.741,3.469,15.305,11.208,16.868c7.741,1.558,15.308-3.469,16.868-11.21l0.864-4.285l13.739,1.2l35.875,35.879l6.503,6.502
	c1.317,1.317,1.317,3.459,0,4.776c-1.315,1.315-3.458,1.317-4.776,0L90.446,66.571c-1.213-1.213-3.18-1.213-4.394,0
	c-1.211,1.211-1.211,3.178,0,4.392l17.42,17.419c0.637,0.637,0.989,1.484,0.989,2.387c0,0.902-0.352,1.75-0.989,2.387
	c-1.318,1.317-3.461,1.317-4.776,0L81.279,75.739c-1.214-1.214-3.183-1.214-4.394,0c-1.214,1.213-1.214,3.18,0,4.394L94.302,97.55
	c1.317,1.317,1.317,3.458,0,4.775c-0.637,0.637-1.487,0.989-2.387,0.989c-0.903,0-1.752-0.352-2.389-0.989L72.109,84.909
	c-1.214-1.214-3.181-1.214-4.394,0c-1.214,1.213-1.214,3.18,0,4.391l17.417,17.419c1.317,1.318,1.317,3.459,0,4.776
	c-1.315,1.315-3.458,1.317-4.774,0L10.592,41.729c-1.214-1.214-3.181-1.214-4.394,0c-1.214,1.213-1.214,3.18,0,4.394l16.995,16.995
	L18.311,68c-1.598,1.597-2.481,3.724-2.481,5.984c0,2.263,0.883,4.389,2.481,5.987l1.592,1.593c1.399,1.398,3.198,2.244,5.14,2.436
	c0.192,1.942,1.04,3.743,2.438,5.138l1.592,1.596c1.434,1.433,3.262,2.242,5.138,2.429c0.189,1.945,1.039,3.747,2.44,5.145
	l1.592,1.593c1.398,1.398,3.198,2.247,5.137,2.437c0.193,1.941,1.042,3.742,2.438,5.14l1.595,1.593
	c1.649,1.651,3.818,2.475,5.984,2.475c2.167,0,4.334-0.824,5.985-2.475l4.882-4.882l11.7,11.7c1.811,1.811,4.22,2.809,6.781,2.809
	c2.561,0,4.97-0.998,6.781-2.809c1.717-1.716,2.69-3.972,2.789-6.381c2.412-0.099,4.664-1.072,6.381-2.789
	c1.77-1.769,2.69-4.062,2.786-6.383c2.321-0.097,4.614-1.017,6.384-2.786c1.767-1.768,2.69-4.061,2.783-6.384
	c2.324-0.097,4.617-1.017,6.384-2.784c3.74-3.741,3.74-9.825,0-13.564l-4.305-4.305l15.753-15.754l10.955-10.952
	C143.077,40.164,143.077,34.24,139.436,30.6 M22.705,75.577c-0.877-0.878-0.877-2.306,0-3.183l4.578-4.579l4.776,4.776l-4.578,4.579
	c-0.877,0.877-2.306,0.877-3.183,0L22.705,75.577z M31.875,84.747c-0.88-0.88-0.88-2.306,0-3.183l4.576-4.579l4.775,4.775
	l-4.575,4.58c-0.877,0.877-2.306,0.877-3.184,0L31.875,84.747z M41.042,93.914c-0.425-0.425-0.66-0.989-0.66-1.59
	c0-0.599,0.235-1.166,0.66-1.59l4.578-4.58l4.776,4.776l-4.578,4.579c-0.877,0.877-2.306,0.877-3.183,0L41.042,93.914z
	 M54.988,104.677c-0.877,0.879-2.306,0.877-3.183,0l-1.593-1.593c-0.877-0.878-0.877-2.306,0-3.183l4.578-4.579l4.776,4.778
	L54.988,104.677z M108.334,66.118l-34.48-34.479c-0.516-0.516-1.199-0.835-1.927-0.898l-17.632-1.543
	c-0.091-0.007-0.182-0.009-0.273-0.009c-1.464,0-2.748,1.031-3.041,2.492l-1.414,7.009c-0.882,4.381-5.165,7.228-9.549,6.343
	c-2.121-0.427-3.951-1.656-5.15-3.458c-1.198-1.805-1.623-3.967-1.193-6.089l1.411-7.01c2.106-10.442,12.31-17.228,22.759-15.122
	c0.02,0.006,0.043,0.011,0.066,0.013L88.1,18.772l33.79,33.79L108.334,66.118z M135.042,39.413l-8.758,8.758L96.21,18.097
	c-0.591-0.591-0.915-1.375-0.915-2.212c0-0.834,0.324-1.618,0.915-2.21l6.549-6.548c0.589-0.589,1.375-0.915,2.21-0.915
	c0.834,0,1.618,0.326,2.209,0.915l27.864,27.864c0.589,0.589,0.915,1.376,0.915,2.21C135.957,38.038,135.631,38.821,135.042,39.413"
	/>
<path fill="#213647" d="M130.628,38.435c0,1.716-1.39,3.107-3.107,3.107c-1.714,0-3.107-1.391-3.107-3.107
	c0-1.714,1.393-3.105,3.107-3.105C129.238,35.33,130.628,36.721,130.628,38.435"/>
<rect fill="none" width="142.167" height="130.449"/>
<g>
	<defs>
		<polygon id="SVGID_1_" points="67.5,41.727 45.39,62.567 10.93,35.515 0,44.972 23.193,63.304 67.239,107.349 81,130.449 
			127.521,82.177 112.728,70.698 90.386,48.356 77.701,27.376 		"/>
	</defs>
	<clipPath id="SVGID_2_">
		<use xlink:href="#SVGID_1_"  overflow="visible"/>
	</clipPath>
	<path clip-path="url(#SVGID_2_)" fill="#FFBC54" d="M139.436,30.786L111.572,2.922c-1.765-1.765-4.108-2.736-6.603-2.736
		c-2.496,0-4.84,0.971-6.604,2.736L91.816,9.47c-1.006,1.006-1.724,2.192-2.176,3.454L59.005,7.437h-0.008
		c-13.773-2.735-27.223,6.22-30.002,19.999l-1.413,7.008c-1.56,7.741,3.469,15.305,11.208,16.868
		c7.741,1.558,15.308-3.469,16.868-11.21l0.864-4.285l13.739,1.2l35.875,35.879l6.503,6.502c1.317,1.317,1.317,3.459,0,4.776
		c-1.315,1.315-3.458,1.317-4.776,0L90.446,66.757c-1.213-1.213-3.18-1.213-4.394,0c-1.211,1.211-1.211,3.178,0,4.392l17.42,17.419
		c0.637,0.637,0.989,1.484,0.989,2.387c0,0.902-0.352,1.75-0.989,2.387c-1.318,1.317-3.461,1.317-4.776,0L81.279,75.924
		c-1.214-1.214-3.183-1.214-4.394,0c-1.214,1.213-1.214,3.18,0,4.394l17.417,17.417c1.317,1.317,1.317,3.458,0,4.775
		c-0.637,0.637-1.487,0.989-2.387,0.989c-0.903,0-1.752-0.352-2.389-0.989L72.109,85.094c-1.214-1.214-3.181-1.214-4.394,0
		c-1.214,1.213-1.214,3.18,0,4.391l17.417,17.419c1.317,1.318,1.317,3.459,0,4.776c-1.315,1.315-3.458,1.317-4.774,0L10.592,41.915
		c-1.214-1.214-3.181-1.214-4.394,0c-1.214,1.213-1.214,3.18,0,4.394l16.995,16.995l-4.882,4.882
		c-1.598,1.597-2.481,3.724-2.481,5.984c0,2.263,0.883,4.389,2.481,5.987l1.592,1.593c1.399,1.398,3.198,2.244,5.14,2.436
		c0.192,1.942,1.04,3.743,2.438,5.138l1.592,1.596c1.434,1.433,3.262,2.242,5.138,2.429c0.189,1.945,1.039,3.747,2.44,5.145
		l1.592,1.593c1.398,1.398,3.198,2.247,5.137,2.437c0.193,1.941,1.042,3.742,2.438,5.14l1.595,1.593
		c1.649,1.651,3.818,2.475,5.984,2.475c2.167,0,4.334-0.824,5.985-2.475l4.882-4.882l11.7,11.7c1.811,1.811,4.22,2.809,6.781,2.809
		c2.561,0,4.97-0.998,6.781-2.809c1.717-1.716,2.69-3.972,2.789-6.381c2.412-0.099,4.664-1.072,6.381-2.789
		c1.77-1.769,2.69-4.062,2.786-6.383c2.321-0.097,4.614-1.017,6.384-2.786c1.767-1.768,2.69-4.061,2.783-6.384
		c2.324-0.097,4.617-1.017,6.384-2.784c3.74-3.741,3.74-9.825,0-13.564l-4.305-4.305l15.753-15.754l10.955-10.952
		C143.077,40.35,143.077,34.426,139.436,30.786 M22.705,75.763c-0.877-0.878-0.877-2.306,0-3.183l4.578-4.579l4.776,4.776
		l-4.578,4.579c-0.877,0.877-2.306,0.877-3.183,0L22.705,75.763z M31.875,84.933c-0.88-0.88-0.88-2.306,0-3.183l4.576-4.579
		l4.775,4.775l-4.575,4.58c-0.877,0.877-2.306,0.877-3.184,0L31.875,84.933z M41.042,94.1c-0.425-0.425-0.66-0.989-0.66-1.59
		c0-0.599,0.235-1.166,0.66-1.59l4.578-4.58l4.776,4.776l-4.578,4.579c-0.877,0.877-2.306,0.877-3.183,0L41.042,94.1z
		 M54.988,104.863c-0.877,0.879-2.306,0.877-3.183,0l-1.593-1.593c-0.877-0.878-0.877-2.306,0-3.183l4.578-4.579l4.776,4.778
		L54.988,104.863z M108.334,66.304l-34.48-34.479c-0.516-0.516-1.199-0.835-1.927-0.898l-17.632-1.543
		c-0.091-0.007-0.182-0.009-0.273-0.009c-1.464,0-2.748,1.031-3.041,2.492l-1.414,7.009c-0.882,4.381-5.165,7.228-9.549,6.343
		c-2.121-0.427-3.951-1.656-5.15-3.458c-1.198-1.805-1.623-3.967-1.193-6.089l1.411-7.01c2.106-10.442,12.31-17.228,22.759-15.122
		c0.02,0.006,0.043,0.011,0.066,0.013L88.1,18.958l33.79,33.79L108.334,66.304z M135.042,39.599l-8.758,8.758L96.21,18.283
		c-0.591-0.591-0.915-1.375-0.915-2.212c0-0.834,0.324-1.618,0.915-2.21l6.549-6.548c0.589-0.589,1.375-0.915,2.21-0.915
		c0.834,0,1.618,0.326,2.209,0.915l27.864,27.864c0.589,0.589,0.915,1.376,0.915,2.21C135.957,38.224,135.631,39.007,135.042,39.599
		"/>
	<path clip-path="url(#SVGID_2_)" fill="#FFBC54" d="M130.628,38.62c0,1.716-1.39,3.107-3.107,3.107
		c-1.714,0-3.107-1.391-3.107-3.107c0-1.714,1.393-3.105,3.107-3.105C129.238,35.515,130.628,36.906,130.628,38.62"/>
</g>
</svg>
